<svg xmlns="http://www.w3.org/2000/svg" version="1.1" xmlns:xlink="http://www.w3.org/1999/xlink" width="180" height="180"><svg width="180" height="180" viewBox="0 0 180 180" fill="none" xmlns="http://www.w3.org/2000/svg">
<path d="M114.716 92.5059L80.2085 71.4192V61.077C80.2085 58.5795 81.0923 56.4594 82.8698 54.7018C84.6423 52.9541 86.7822 52.0803 89.2797 52.0803C91.7821 52.0803 93.9022 52.9541 95.6548 54.7018C97.4075 56.4594 98.2764 58.5795 98.2764 61.077V65.3469L114.686 75.426V61.4096C114.686 54.5231 112.253 48.6394 107.397 43.7489C102.541 38.8632 96.6379 36.4204 89.6967 36.4204C82.8698 36.4204 77.011 38.8533 72.1253 43.7091C67.2447 48.5699 64.7969 54.4685 64.7969 61.4096V79.5619L98.2764 100.018V118.215C98.2764 120.722 97.4075 122.838 95.6548 124.59C93.9022 126.338 91.7821 127.212 89.2797 127.212C86.7822 127.212 84.6423 126.338 82.8698 124.59C81.0923 122.838 80.2035 120.717 80.2035 118.215V106.075L64.7969 96.6368V118.384C64.7969 125.275 67.2099 131.154 72.0459 136.045C76.8719 140.925 82.7605 143.373 89.6967 143.373C96.5784 143.373 102.472 140.945 107.353 136.089C112.243 131.224 114.686 125.325 114.686 118.384V110.043L114.711 92.5059H114.716Z" fill="#0ABBB5"></path>
<path d="M51.7261 60.4428C51.7261 50.2197 55.435 39.232 62.8528 32.0773C70.2707 24.9276 79.1681 21.6805 89.5401 21.6805C100.066 21.6805 109.033 24.9425 116.401 32.1369C123.779 39.3363 127.473 50.3091 127.473 60.4378V83.2275L142.999 92.7207V55.5075C142.999 43.0452 137.796 29.56 127.399 20.7123C116.992 11.8645 104.361 6.03059 89.5153 6.03059C74.8882 6.03059 62.3464 11.8397 51.8899 20.6279C41.4285 29.4359 36.2003 42.9459 36.2003 55.5075V62.0763L51.7261 71.5645V60.4428ZM127.473 119.423C127.473 129.646 123.754 140.634 116.337 147.788C108.919 154.943 99.9867 158.17 89.5401 158.17C78.9993 158.17 70.0671 154.913 62.7287 147.719C55.4002 140.529 51.731 129.552 51.731 119.418V88.6444L36.1953 79.1561V124.358C36.1953 136.82 41.3689 150.306 51.7112 159.153C62.0485 168.001 74.6499 173.83 89.5103 173.83C104.242 173.83 116.843 168.021 127.305 159.218C137.771 150.425 142.999 136.915 142.999 124.353V109.806L127.468 100.317L127.473 119.423Z" fill="#0ABBB5"></path>
</svg><style>@media (prefers-color-scheme: light) { :root { filter: none; } }
@media (prefers-color-scheme: dark) { :root { filter: none; } }
</style></svg>