<svg width="32" height="32" viewBox="0 0 32 32" fill="none" xmlns="http://www.w3.org/2000/svg">
<path fill-rule="evenodd" clip-rule="evenodd" d="M9 4C6.23858 4 4 6.23858 4 9V23C4 25.7614 6.23858 28 9 28H23C25.7614 28 28 25.7614 28 23V9C28 6.23858 25.7614 4 23 4H9ZM9 6C7.34315 6 6 7.34315 6 9V23C6 24.6569 7.34315 26 9 26H23C24.6569 26 26 24.6569 26 23V9C26 7.34315 24.6569 6 23 6H9Z" fill="#0ABBB5"/>
<rect x="11" y="15" width="3" height="9" rx="1.5" fill="#0ABBB5"/>
<rect x="8" y="18" width="9" height="3" rx="1.5" fill="#0ABBB5"/>
<circle cx="19.5" cy="9.5" r="1.5" fill="#0ABBB5"/>
<circle cx="19.5" cy="15.5" r="1.5" fill="#0ABBB5"/>
<circle cx="22.5" cy="12.5" r="1.5" fill="#0ABBB5"/>
<circle cx="16.5" cy="12.5" r="1.5" fill="#0ABBB5"/>
</svg>
