<svg width="24" height="24" viewBox="0 0 24 24" fill="none" xmlns="http://www.w3.org/2000/svg">
<path d="M20.1818 2H3.81818C2.81364 2 2 2.81364 2 3.81818V20.1818C2 21.1864 2.81364 22 3.81818 22H20.1818C21.1864 22 22 21.1864 22 20.1818V3.81818C22 2.81364 21.1864 2 20.1818 2ZM8.32182 18.3636H5.64V9.73455H8.32182V18.3636ZM6.95364 8.50091C6.08909 8.50091 5.39 7.8 5.39 6.93727C5.39 6.07455 6.09 5.37455 6.95364 5.37455C7.81546 5.37455 8.51636 6.07545 8.51636 6.93727C8.51636 7.8 7.81546 8.50091 6.95364 8.50091ZM18.3673 18.3636H15.6873V14.1673C15.6873 13.1664 15.6691 11.8791 14.2936 11.8791C12.8982 11.8791 12.6836 12.9691 12.6836 14.0945V18.3636H10.0036V9.73455H12.5764V10.9136H12.6127C12.9709 10.2355 13.8455 9.52 15.15 9.52C17.8655 9.52 18.3673 11.3073 18.3673 13.6309V18.3636Z" fill="white"/>
</svg>
