<svg width="24" height="24" viewBox="0 0 24 24" fill="none" xmlns="http://www.w3.org/2000/svg">
<path d="M16.1665 3.66652C17.2707 3.66982 18.3286 4.10989 19.1094 4.89064C19.8901 5.67138 20.3302 6.72935 20.3335 7.83348V16.1665C20.3302 17.2707 19.8901 18.3286 19.1094 19.1094C18.3286 19.8901 17.2707 20.3302 16.1665 20.3335H7.83348C6.72935 20.3302 5.67138 19.8901 4.89064 19.1094C4.10989 18.3286 3.66982 17.2707 3.66652 16.1665V7.83348C3.66982 6.72935 4.10989 5.67138 4.89064 4.89064C5.67138 4.10989 6.72935 3.66982 7.83348 3.66652H16.1665ZM16.1665 2H7.83348C4.625 2 2 4.625 2 7.83348V16.1665C2 19.375 4.625 22 7.83348 22H16.1665C19.375 22 22 19.375 22 16.1665V7.83348C22 4.625 19.375 2 16.1665 2Z" fill="white"/>
<path d="M17.416 7.8335C17.1688 7.8335 16.9271 7.76019 16.7216 7.62283C16.516 7.48548 16.3558 7.29026 16.2612 7.06185C16.1666 6.83344 16.1418 6.58211 16.19 6.33963C16.2383 6.09716 16.3573 5.87443 16.5321 5.69961C16.7069 5.5248 16.9297 5.40575 17.1722 5.35752C17.4146 5.30928 17.666 5.33404 17.8944 5.42865C18.1228 5.52326 18.318 5.68347 18.4554 5.88903C18.5927 6.0946 18.666 6.33627 18.666 6.5835C18.6664 6.74775 18.6343 6.91045 18.5716 7.06227C18.5089 7.21408 18.4168 7.35202 18.3007 7.46817C18.1845 7.58431 18.0466 7.67637 17.8948 7.73907C17.743 7.80176 17.5803 7.83385 17.416 7.8335Z" fill="white"/>
<path d="M12 8.66652C12.6593 8.66652 13.3038 8.86202 13.852 9.22831C14.4002 9.5946 14.8274 10.1152 15.0797 10.7243C15.332 11.3334 15.3981 12.0037 15.2694 12.6503C15.1408 13.297 14.8233 13.8909 14.3571 14.3571C13.8909 14.8233 13.297 15.1408 12.6503 15.2694C12.0037 15.3981 11.3334 15.332 10.7243 15.0797C10.1152 14.8274 9.5946 14.4002 9.22831 13.852C8.86203 13.3038 8.66652 12.6593 8.66652 12C8.66747 11.1162 9.01897 10.2689 9.64392 9.64392C10.2689 9.01897 11.1162 8.66746 12 8.66652ZM12 7C11.0111 7 10.0444 7.29324 9.22215 7.84265C8.39991 8.39206 7.75904 9.17295 7.3806 10.0866C7.00217 11.0002 6.90315 12.0055 7.09608 12.9755C7.289 13.9454 7.76521 14.8363 8.46447 15.5355C9.16373 16.2348 10.0546 16.711 11.0246 16.9039C11.9945 17.0969 12.9998 16.9978 13.9134 16.6194C14.827 16.241 15.6079 15.6001 16.1574 14.7779C16.7068 13.9556 17 12.9889 17 12C17 10.6739 16.4732 9.40215 15.5355 8.46447C14.5979 7.52678 13.3261 7 12 7Z" fill="white"/>
</svg>
