<svg width="144" height="48" viewBox="0 0 144 48" fill="none" xmlns="http://www.w3.org/2000/svg">
<path d="M60.2265 19.1139C60.2265 18.6908 60.0746 18.3302 59.7708 18.0349C59.467 17.7368 59.0993 17.5892 58.6635 17.5892C58.2305 17.5892 57.8614 17.7368 57.5519 18.0335C57.2425 18.3316 57.0906 18.6908 57.0906 19.1124V28.8013C57.0906 29.2243 57.2425 29.5835 57.5519 29.8831C57.8614 30.1783 58.2305 30.326 58.6649 30.326C59.0993 30.326 59.467 30.1783 59.7708 29.8831C60.0746 29.5849 60.2265 29.2243 60.2265 28.8013V19.1153V19.1139ZM58.7373 14.9345C59.9426 14.9345 60.9661 15.349 61.8094 16.1767C62.6512 17.0057 63.0728 18.0037 63.0728 19.1706V28.8297C63.0728 30.0037 62.6498 31.0045 61.8023 31.8279C60.9548 32.6513 59.9312 33.063 58.7373 33.063C57.5335 33.063 56.5114 32.6485 55.6738 31.8208C54.8348 30.9918 54.416 29.9952 54.416 28.8297V19.1706C54.416 17.9952 54.8405 16.9944 55.6866 16.171C56.5355 15.3476 57.5519 14.9359 58.7387 14.9359" fill="#0ABBB5"/>
<path d="M67.4784 33.051L64.2402 14.9382H67.1036L69.3778 29.0562L71.6677 14.9382H74.5325L71.2361 33.051H67.4784Z" fill="#0ABBB5"/>
<path d="M76.0137 33.0656V14.9371H83.7889V17.6826H78.745V22.6285H82.4318V25.3741H78.745V30.3172H83.7889V33.0656H76.0137Z" fill="#0ABBB5"/>
<path d="M113.08 19.1125C113.08 18.6895 112.928 18.3289 112.626 18.0336C112.322 17.7369 111.953 17.5893 111.518 17.5893C111.085 17.5893 110.715 17.7369 110.407 18.0322C110.097 18.3303 109.943 18.6895 109.943 19.1111V28.7915C109.943 29.2131 110.097 29.5722 110.407 29.8704C110.715 30.1656 111.085 30.3133 111.52 30.3133C111.953 30.3133 112.322 30.1656 112.624 29.8689C112.928 29.5708 113.08 29.2131 113.08 28.79V19.1125ZM111.591 14.936C112.798 14.936 113.82 15.3505 114.663 16.1782C115.506 17.0072 115.928 18.0024 115.928 19.1679V28.8198C115.929 29.9953 115.503 30.9919 114.657 31.8138C113.808 32.6386 112.786 33.0503 111.591 33.0503C110.387 33.0503 109.365 32.6386 108.527 31.811C107.69 30.9819 107.27 29.9853 107.27 28.8198V19.1665C107.27 17.9925 107.694 16.9916 108.542 16.1697C109.39 15.3463 110.407 14.936 111.591 14.936Z" fill="#0ABBB5"/>
<path d="M121.115 14.9363L124.738 27.1195V14.9363H127.47V33.0648H124.537L120.778 21.4552V33.0648H118.047V14.9363H121.115Z" fill="#0ABBB5"/>
<path d="M132.32 33.0492H129.586V14.9363H132.32V33.0492Z" fill="#0ABBB5"/>
<path d="M138.775 33.0514C137.573 33.0514 136.546 32.6397 135.704 31.8163C134.861 30.9929 134.439 29.9992 134.439 28.8309V19.1732C134.439 17.9978 134.865 16.997 135.711 16.1722C136.559 15.3488 137.581 14.9371 138.775 14.9371C139.98 14.9371 141.004 15.3531 141.84 16.1793C142.677 17.0083 143.098 18.0077 143.098 19.1747V21.1905H140.267V19.115C140.267 18.692 140.111 18.3286 139.801 18.029C139.493 17.7281 139.121 17.5747 138.69 17.5747C138.257 17.5747 137.886 17.7281 137.584 18.029C137.279 18.3286 137.127 18.692 137.127 19.115V28.8025C137.127 29.2255 137.279 29.5861 137.584 29.8814C137.886 30.1795 138.257 30.3272 138.691 30.3272C139.121 30.3272 139.493 30.1781 139.801 29.8828C140.111 29.5847 140.267 29.2255 140.267 28.8039V26.3593H143.098V28.8309C143.098 30.0077 142.675 31.0029 141.827 31.8234C140.978 32.6425 139.96 33.0514 138.775 33.0514Z" fill="#0ABBB5"/>
<path d="M93.0469 25.1441C94.0194 24.2569 94.5063 23.1737 94.5063 21.8904V19.2598C94.5063 17.9481 94.1926 16.9274 93.5679 16.1935C92.8524 15.3559 91.7366 14.9371 90.2119 14.9371H85.9062V33.0514H88.639V17.7252H90.2858C91.3278 17.7252 91.8473 18.2519 91.8473 19.301V21.9486C91.8473 22.383 91.6954 22.7535 91.3931 23.063C91.0893 23.3696 90.7202 23.5244 90.2858 23.5244H89.752L92.1157 33.05H95.0685L93.0469 25.1441Z" fill="#0ABBB5"/>
<path d="M105.154 24.4423L99.206 20.8677V19.1145C99.206 18.6914 99.3622 18.3309 99.666 18.0356C99.974 17.7375 100.342 17.5898 100.773 17.5898C101.202 17.5898 101.568 17.7375 101.871 18.0356C102.17 18.3309 102.321 18.6914 102.321 19.1145V19.8385L105.15 21.5463V19.1698C105.15 18.0029 104.734 17.0049 103.894 16.1759C103.056 15.3482 102.041 14.9337 100.846 14.9337C99.6674 14.9337 98.658 15.3454 97.8162 16.1688C96.9744 16.9936 96.5527 17.9944 96.5527 19.1698V22.2476L102.322 25.7157V28.8005C102.322 29.2235 102.172 29.5813 101.872 29.8808C101.57 30.1761 101.205 30.3266 100.773 30.3266C100.343 30.3266 99.9754 30.1761 99.6674 29.8808C99.3622 29.5827 99.2088 29.2235 99.2088 28.8019V26.7435L96.5527 25.1422V28.8289C96.5527 29.9958 96.9687 30.9924 97.802 31.8214C98.6325 32.6491 99.6475 33.0636 100.844 33.0636C102.03 33.0636 103.045 32.6519 103.886 31.8285C104.728 31.0052 105.149 30.0043 105.149 28.8289V27.4164L105.154 24.4423Z" fill="#0ABBB5"/>
<path d="M43.5614 48.0001H42.2852V0.000122461H43.5614V48.0001Z" fill="#0ABBB5"/>
<path d="M22.4486 24.7375L12.5823 18.7084V15.7514C12.5823 15.0373 12.835 14.4311 13.3432 13.9286C13.85 13.4289 14.4618 13.179 15.1759 13.179C15.8914 13.179 16.4976 13.4289 16.9987 13.9286C17.4998 14.4311 17.7483 15.0373 17.7483 15.7514V16.9723L22.4401 19.8541V15.8465C22.4401 13.8775 21.7445 12.1953 20.3561 10.7969C18.9677 9.40003 17.2798 8.70158 15.2952 8.70158C13.3432 8.70158 11.668 9.39719 10.2711 10.7856C8.87565 12.1754 8.17578 13.8619 8.17578 15.8465V21.0366L17.7483 26.8854V32.0883C17.7483 32.8052 17.4998 33.41 16.9987 33.9111C16.4976 34.4108 15.8914 34.6606 15.1759 34.6606C14.4618 34.6606 13.85 34.4108 13.3432 33.9111C12.835 33.41 12.5809 32.8038 12.5809 32.0883V28.6174L8.17578 25.9187V32.1366C8.17578 34.107 8.86571 35.7878 10.2484 37.1861C11.6283 38.5816 13.312 39.2815 15.2952 39.2815C17.2627 39.2815 18.9478 38.5873 20.3433 37.1989C21.7416 35.8077 22.4401 34.1212 22.4401 32.1366V29.7516L22.4472 24.7375H22.4486Z" fill="#0ABBB5"/>
<path d="M4.44056 15.5698C4.44056 12.6468 5.50101 9.5052 7.62192 7.45954C9.74283 5.41529 12.2868 4.48687 15.2524 4.48687C18.2619 4.48687 20.8258 5.41955 22.9325 7.47657C25.042 9.53501 26.0982 12.6724 26.0982 15.5684V22.0844L30.5374 24.7987V14.1587C30.5374 10.5955 29.0496 6.73979 26.0769 4.21004C23.1014 1.68029 19.4899 0.0122481 15.2453 0.0122481C11.0631 0.0122481 7.47712 1.67319 4.48741 4.18591C1.49628 6.7043 0.00141962 10.5671 0.00141962 14.1587V16.0368L4.44056 18.7497V15.5698ZM26.0982 32.4334C26.0982 35.3564 25.0349 38.498 22.914 40.5436C20.7931 42.5893 18.2392 43.512 15.2524 43.512C12.2385 43.512 9.68462 42.5808 7.58643 40.5238C5.49108 38.4682 4.44198 35.3294 4.44198 32.432V23.6332L0 20.9203V33.8445C0 37.4077 1.47924 41.2634 4.4363 43.7931C7.39194 46.3229 10.9949 47.9895 15.2438 47.9895C19.4558 47.9895 23.0588 46.3286 26.05 43.8116C29.0425 41.2974 30.5374 37.4347 30.5374 33.8431V29.6836L26.0968 26.9707L26.0982 32.4334Z" fill="#0ABBB5"/>
</svg>
