<svg width="900" height="99" viewBox="0 0 900 99" fill="none" xmlns="http://www.w3.org/2000/svg">
<path d="M638.077 98.4688C630.243 98.4688 622.729 95.3565 617.189 89.8168C611.649 84.277 608.537 76.7635 608.537 68.929V29.5427C608.537 21.7083 611.649 14.1948 617.189 8.65501C622.729 3.11524 630.243 0.00303167 638.077 0.00303167H746.39L744.421 19.6962H638.077C635.466 19.6962 632.961 20.7336 631.114 22.5802C629.268 24.4268 628.23 26.9313 628.23 29.5427V39.3893H738.513L736.544 59.0825H628.23V68.929C628.23 71.5405 629.268 74.045 631.114 75.8916C632.961 77.7382 635.466 78.7756 638.077 78.7756H746.39L744.421 98.4688H638.077Z" fill="#111111"/>
<path d="M791.686 98.4688C783.852 98.4688 776.338 95.3565 770.799 89.8168C765.259 84.277 762.146 76.7635 762.146 68.929V29.5427C762.146 21.7083 765.259 14.1948 770.799 8.65501C776.338 3.11524 783.852 0.00303167 791.686 0.00303167H900L898.03 19.6962H791.686C789.075 19.6962 786.57 20.7336 784.724 22.5802C782.877 24.4268 781.84 26.9313 781.84 29.5427V39.3893H892.122L890.153 59.0825H781.84V68.929C781.84 71.5405 782.877 74.045 784.724 75.8916C786.57 77.7382 789.075 78.7756 791.686 78.7756H900L898.03 98.4688H791.686Z" fill="#111111"/>
<path d="M200.881 98.4688C193.046 98.4687 185.533 95.3565 179.993 89.8168C174.453 84.277 171.341 76.7635 171.341 68.929C171.341 61.0946 174.453 53.5811 179.993 48.0413C185.533 42.5015 193.046 39.3893 200.881 39.3893H256.022C258.634 39.3893 261.138 38.3519 262.985 36.5053C264.832 34.6587 265.869 32.1542 265.869 29.5427C265.869 26.9313 264.832 24.4268 262.985 22.5802C261.138 20.7336 258.634 19.6962 256.022 19.6962H177.249C174.637 19.6962 172.133 20.7336 170.286 22.5802C168.44 24.4268 167.402 26.9313 167.402 29.5427V98.4688L147.709 96.4994V29.5427C147.709 21.7083 150.821 14.1948 156.361 8.65501C161.901 3.11524 169.414 0.00303167 177.249 0.00303167H256.022C263.857 0.00303167 271.37 3.11524 276.91 8.65501C282.45 14.1948 285.562 21.7083 285.562 29.5427C285.562 37.3772 282.45 44.8907 276.91 50.4305C271.37 55.9703 263.857 59.0825 256.022 59.0825H200.881C198.269 59.0825 195.765 60.1199 193.918 61.9665C192.072 63.813 191.034 66.3176 191.034 68.929C191.034 71.5405 192.072 74.045 193.918 75.8916C195.765 77.7382 198.269 78.7756 200.881 78.7756H277.685L275.716 98.4688H200.881Z" fill="#111111"/>
<path fill-rule="evenodd" clip-rule="evenodd" d="M430.502 8.65198C424.962 3.11221 417.449 0 409.614 0H330.841C323.006 0 315.493 3.11221 309.953 8.65198C304.413 14.1917 301.301 21.7053 301.301 29.5397V68.926C301.301 76.7604 304.413 84.274 309.953 89.8137C315.493 95.3535 323.006 98.4657 330.841 98.4657H409.614C417.449 98.4657 424.962 95.3535 430.502 89.8137C436.042 84.274 439.154 76.7604 439.154 68.926V29.5397C439.154 21.7053 436.042 14.1917 430.502 8.65198ZM416.565 22.5771C414.718 20.7305 412.214 19.6931 409.602 19.6931H330.829C328.218 19.6931 325.713 20.7305 323.866 22.5771C322.02 24.4237 320.982 26.9282 320.982 29.5397V68.926C320.982 71.5374 322.02 74.042 323.866 75.8885C325.713 77.7351 328.218 78.7725 330.829 78.7725H409.602C412.214 78.7725 414.718 77.7351 416.565 75.8885C418.412 74.042 419.449 71.5374 419.449 68.926V29.5397C419.449 26.9282 418.412 24.4237 416.565 22.5771Z" fill="#111111"/>
<path fill-rule="evenodd" clip-rule="evenodd" d="M454.916 98.4657V29.5397C454.916 21.7053 458.028 14.1917 463.568 8.65198C469.108 3.11221 476.622 0 484.456 0H555.352C560.604 -3.59127e-07 565.761 1.40018 570.292 4.05631C574.823 6.71244 578.563 10.5285 581.129 15.1113C583.694 19.6941 584.991 24.8779 584.886 30.1288C584.781 35.3796 583.279 40.5076 580.533 44.9845C585.594 48.6423 589.366 53.8098 591.306 59.745C593.247 65.6802 593.257 72.0778 591.335 78.0191C589.413 83.9604 585.657 89.1397 580.607 92.8133C575.558 96.4869 569.474 98.4657 563.229 98.4657H454.916ZM474.627 39.3862V29.5396C474.627 26.9281 475.664 24.4236 477.511 22.577C479.358 20.7304 481.862 19.693 484.474 19.693H555.37C557.981 19.693 560.486 20.7304 562.332 22.577C564.179 24.4236 565.216 26.9281 565.216 29.5396C565.216 32.1511 564.179 34.6556 562.332 36.5022C560.486 38.3488 557.981 39.3862 555.37 39.3862H474.627ZM474.627 59.0794V78.7725H563.247C565.858 78.7725 568.363 77.7351 570.21 75.8885C572.056 74.042 573.094 71.5374 573.094 68.926C573.094 66.3145 572.056 63.81 570.21 61.9634C568.363 60.1168 565.858 59.0794 563.247 59.0794H474.627Z" fill="#111111"/>
<path fill-rule="evenodd" clip-rule="evenodd" d="M78.4199 3.95757C73.9292 1.36492 68.8352 3.65311e-07 63.6499 0H40.9099C35.7246 3.65311e-07 30.6306 1.36492 26.1399 3.95757C21.6493 6.55022 17.9202 10.2793 15.3276 14.7699L3.95761 34.463C1.36493 38.9536 0 44.0476 0 49.2329C0 54.4182 1.36493 59.5121 3.95761 64.0027L15.3276 83.6959C17.9202 88.1865 21.6493 91.9155 26.1399 94.5081C30.6306 97.1008 35.7246 98.4657 40.9099 98.4657H63.6499C68.8352 98.4657 73.9292 97.1008 78.4199 94.5081C82.9105 91.9155 86.6396 88.1865 89.2322 83.6959L100.602 64.0027C103.195 59.5121 104.56 54.4182 104.56 49.2329C104.56 44.0476 103.195 38.9536 100.602 34.463L89.2322 14.7699C86.6396 10.2793 82.9105 6.55022 78.4199 3.95757ZM86.7556 21.0135C85.2588 20.1493 83.5608 19.6943 81.8323 19.6943H22.7086C20.9801 19.6943 19.2821 20.1493 17.7852 21.0135C16.2883 21.8777 15.0453 23.1207 14.1811 24.6176L11.9071 28.5562C11.0429 30.0531 10.5879 31.7511 10.5879 33.4795C10.5879 35.2079 11.0429 36.9059 11.9071 38.4028L41.469 89.605C42.3332 91.1018 43.5762 92.3448 45.0731 93.2091C46.57 94.0733 48.268 94.5282 49.9964 94.5282H54.5444C56.2729 94.5282 57.9709 94.0733 59.4678 93.2091C60.9646 92.3448 62.2076 91.1018 63.0719 89.605L92.6338 38.4028C93.498 36.9059 93.953 35.2079 93.953 33.4795C93.953 31.7511 93.498 30.0531 92.6338 28.5562L90.3598 24.6176C89.4955 23.1207 88.2525 21.8777 86.7556 21.0135Z" fill="#111111"/>
</svg>
