<svg width="31" height="48" viewBox="0 0 31 48" fill="none" xmlns="http://www.w3.org/2000/svg">
<path d="M22.4486 24.7375L12.5823 18.7084V15.7514C12.5823 15.0373 12.835 14.4311 13.3432 13.9286C13.85 13.4289 14.4618 13.179 15.1759 13.179C15.8914 13.179 16.4976 13.4289 16.9987 13.9286C17.4998 14.4311 17.7483 15.0373 17.7483 15.7514V16.9723L22.4401 19.8541V15.8465C22.4401 13.8775 21.7445 12.1953 20.3561 10.7969C18.9677 9.40003 17.2798 8.70158 15.2952 8.70158C13.3432 8.70158 11.668 9.39719 10.2711 10.7856C8.87565 12.1754 8.17578 13.8619 8.17578 15.8465V21.0366L17.7483 26.8854V32.0883C17.7483 32.8052 17.4998 33.41 16.9987 33.9111C16.4976 34.4108 15.8914 34.6606 15.1759 34.6606C14.4618 34.6606 13.85 34.4108 13.3432 33.9111C12.835 33.41 12.5809 32.8038 12.5809 32.0883V28.6174L8.17578 25.9187V32.1366C8.17578 34.107 8.86571 35.7878 10.2484 37.1861C11.6283 38.5816 13.312 39.2815 15.2952 39.2815C17.2627 39.2815 18.9478 38.5873 20.3433 37.1989C21.7416 35.8077 22.4401 34.1212 22.4401 32.1366V29.7516L22.4472 24.7375H22.4486Z" fill="#0ABBB5"/>
<path d="M4.44056 15.5698C4.44056 12.6468 5.50101 9.5052 7.62192 7.45954C9.74283 5.41529 12.2868 4.48687 15.2524 4.48687C18.2619 4.48687 20.8258 5.41955 22.9325 7.47657C25.042 9.53501 26.0982 12.6724 26.0982 15.5684V22.0844L30.5374 24.7987V14.1587C30.5374 10.5955 29.0496 6.73979 26.0769 4.21004C23.1014 1.68029 19.4899 0.0122481 15.2453 0.0122481C11.0631 0.0122481 7.47712 1.67319 4.48741 4.18591C1.49628 6.7043 0.00141962 10.5671 0.00141962 14.1587V16.0368L4.44056 18.7497V15.5698ZM26.0982 32.4334C26.0982 35.3564 25.0349 38.498 22.914 40.5436C20.7931 42.5893 18.2392 43.512 15.2524 43.512C12.2385 43.512 9.68462 42.5808 7.58643 40.5238C5.49108 38.4682 4.44198 35.3294 4.44198 32.432V23.6332L0 20.9203V33.8445C0 37.4077 1.47924 41.2634 4.4363 43.7931C7.39194 46.3229 10.9949 47.9895 15.2438 47.9895C19.4558 47.9895 23.0588 46.3286 26.05 43.8116C29.0425 41.2974 30.5374 37.4347 30.5374 33.8431V29.6836L26.0968 26.9707L26.0982 32.4334Z" fill="#0ABBB5"/>
</svg>
